<svg xmlns="http://www.w3.org/2000/svg" xmlns:xlink="http://www.w3.org/1999/xlink" fill="none" version="1.1" width="37" height="37" viewBox="0 0 37 37"><defs><clipPath id="master_svg0_1_6"><rect x="0" y="0" width="37" height="37" rx="0"/></clipPath><linearGradient x1="0.5" y1="0" x2="0.5" y2="1" id="master_svg1_3_2921"><stop offset="13.963580131530762%" stop-color="#00C8FF" stop-opacity="0.9599999785423279"/><stop offset="39.078834652900696%" stop-color="#00B7FF" stop-opacity="1"/><stop offset="72.57246375083923%" stop-color="#518DF4" stop-opacity="0.9962175488471985"/></linearGradient></defs><g clip-path="url(#master_svg0_1_6)"><g><path d="M9.41858197265625,11.031342260742187L11.42480197265625,7.807002260742188L11.42891197265625,7.807002260742188C12.00446197265625,6.906664260742188,13.00762197265625,6.3064422607421875,14.15462197265625,6.3064422607421875C15.30442197265625,6.3064422607421875,16.31082197265625,6.908309260742188,16.88472197265625,7.8111122607421875L21.14352197265625,7.8111122607421875C21.71742197265625,6.908309260742188,22.72332197265625,6.306442966461187,23.87362197265625,6.306442966461187C25.02062197265625,6.306442966461187,26.02382197265625,6.906665260742187,26.59932197265625,7.807002260742188L26.60342197265625,7.807002260742188L28.60682197265625,11.026822260742186C27.96712197265625,10.805642260742188,27.28752197265625,10.688882260742187,26.59112197265625,10.688882260742187C24.46232197265625,10.688882260742187,22.49972197265625,11.786142260742189,21.38152197265625,13.576122260742189L16.64632197265625,13.576122260742189C15.52812197265625,11.786142260742189,13.56542197265625,10.688882260742187,11.43672197265625,10.688882260742187C10.73865197265625,10.688882260742187,10.058681972656249,10.808932260742187,9.41858197265625,11.031342260742187ZM35.06782197265625,23.474442260742187C35.06782197265625,27.462242260742187,31.83652197265625,30.693542260742188,27.85282197265625,30.693542260742188C25.31012197265625,30.693542260742188,23.08432197265625,29.37304226074219,21.80162197265625,27.384142260742188C21.16402197265625,28.228942260742187,20.15432197265625,28.777742260742187,19.01392197265625,28.777742260742187C17.87352197265625,28.777742260742187,16.86382197265625,28.228942260742187,16.22612197265625,27.384142260742188C14.94392197265625,29.37304226074219,12.71775197265625,30.693542260742188,10.17502197265625,30.693542260742188C6.19135197265625,30.693542260742188,2.96002197265625,27.462242260742187,2.96002197265625,23.474442260742187C2.96002197265625,22.039642260742188,3.38346697265625,20.707642260742187,4.10702197265625,19.585342260742188L4.09880197265625,19.581242260742187L7.95625197265625,13.381662260742187C8.86892197265625,12.459542260742188,10.11171197265625,11.922222260742188,11.43672197265625,11.922222260742188C13.23782197265625,11.922222260742188,14.89042197265625,12.905182260742187,15.75012197265625,14.487142260742187L15.92562197265625,14.809452260742187L22.10182197265625,14.809452260742187L22.27732197265625,14.487142260742187C23.13692197265625,12.905182260742187,24.79002197265625,11.922222260742188,26.59112197265625,11.922222260742188C27.90212197265625,11.922222260742188,29.13672197265625,12.438162260742187,30.05312197265625,13.351242260742188L33.92902197265625,19.581242260742187L33.92082197265625,19.585342260742188C34.64432197265625,20.707642260742187,35.06782197265625,22.039642260742188,35.06782197265625,23.474442260742187ZM14.66842197265625,23.474442260742187C14.66842197265625,20.995442260742188,12.65813197265625,18.985142260742187,10.17502197265625,18.985142260742187C7.69191197265625,18.985142260742187,5.68158197265625,20.995442260742188,5.68158197265625,23.474442260742187C5.68158197265625,25.957542260742187,7.69191197265625,27.967842260742188,10.17502197265625,27.967842260742188C12.65813197265625,27.967842260742188,14.66842197265625,25.957542260742187,14.66842197265625,23.474442260742187ZM20.65832197265625,25.283342260742188C20.65832197265625,24.375142260742187,19.92202197265625,23.638842260742187,19.01392197265625,23.638842260742187C18.105721972656248,23.638842260742187,17.369421972656248,24.375142260742187,17.369421972656248,25.283342260742188C17.369421972656248,26.19144226074219,18.105721972656248,26.92774226074219,19.01392197265625,26.92774226074219C19.92202197265625,26.92774226074219,20.65832197265625,26.19144226074219,20.65832197265625,25.283342260742188ZM32.34622197265625,23.474442260742187C32.34622197265625,20.995442260742188,30.33592197265625,18.985142260742187,27.85282197265625,18.985142260742187C25.36972197265625,18.985142260742187,23.35932197265625,20.995442260742188,23.35932197265625,23.474442260742187C23.35932197265625,25.957542260742187,25.36972197265625,27.967842260742188,27.85282197265625,27.967842260742188C30.33592197265625,27.967842260742188,32.34622197265625,25.957542260742187,32.34622197265625,23.474442260742187Z" fill="url(#master_svg1_3_2921)" fill-opacity="1"/></g></g></svg>